<svg width="495" height="495" viewBox="0 0 495 495" fill="none" xmlns="http://www.w3.org/2000/svg">
<g clip-path="url(#clip0_2_58)">
<rect width="495" height="495" rx="88" fill="#516333"/>
<path d="M303.387 365.661L292.21 405.581L103.79 445.5V416.758L105.387 368.855L114.968 327.339L121.355 295.403L130.935 266.661L150.097 223.548L172.452 183.629L180.435 162.871L182.032 116.564L183.629 105.387V91.0161V78.2419L188.419 65.4677L193.21 57.4838L207.581 51.0967L229.935 47.9032H252.29L276.242 51.0967L292.21 57.4838L306.581 65.4677L319.355 79.8387L322.548 97.4032H335.323L349.694 100.597L365.661 106.984L378.435 114.968L368.855 122.952C361.935 126.677 347.777 134.448 346.5 135.726C345.223 137.003 324.677 139.452 314.564 140.516C316.161 143.177 319.994 149.458 322.548 153.29C325.742 158.081 333.726 180.435 338.516 188.419C342.348 194.806 340.113 235.79 338.516 255.484L325.742 311.371L303.387 365.661Z" fill="white"/>
<path d="M380.032 114.968C370.984 108.581 346.819 96.1258 322.548 97.4032" stroke="black" stroke-width="12.7742" stroke-linecap="round"/>
<path d="M314.565 142.113C357.677 185.226 343.306 293.806 297 376.839" stroke="black" stroke-width="12.7742" stroke-linecap="round"/>
<circle cx="261.871" cy="95.8065" r="9.58065" fill="black"/>
<path d="M292.21 118.161C333.087 125.826 366.194 121.355 381.629 114.968C372.048 124.548 342.987 143.071 303.387 140.516" stroke="black" stroke-width="12.7742" stroke-linecap="round"/>
<path d="M108.581 439.113C94.2098 396 118.161 306.581 129.339 269.855C147.224 211.088 172.451 193.21 178.839 166.065C181.249 155.82 185.786 116.571 185.226 100.597C184.745 86.864 179.182 88.5986 180.435 76.6452C181.054 70.7532 187.138 73.3162 188.419 68.6613C189.448 64.9225 184.869 60.0812 186.489 57.4839C187.74 55.4773 194.723 57.0507 196.403 55.8871C217.161 41.516 314.564 35.1293 322.548 97.4036" stroke="black" stroke-width="12.7742" stroke-linecap="round"/>
<path d="M320.952 495C411.648 472.006 583.355 338.516 657.871 274.645L645.097 -54.2903C597.194 73.4516 490.21 332.129 279.435 383.226C68.6613 434.323 -136.258 460.935 -191.613 463.065L-183.629 565.258C-53.2258 551.419 230.255 517.994 320.952 495Z" fill="white" stroke="black" stroke-width="12.7742"/>
<path d="M110.178 356.081C103.318 411.579 87.8228 472.645 126.145 442.306C135.905 434.58 110.341 502.249 134.129 475.839C203.747 398.547 352.936 216.576 297 186.823C271.384 173.197 242.076 178.156 215.565 185.226C191.613 191.613 177.561 201.194 161.274 210.774C143.71 221.106 117.037 300.582 110.178 356.081Z" fill="black" stroke="black" stroke-width="12.7742" stroke-linecap="round"/>
</g>
<defs>
<clipPath id="clip0_2_58">
<rect width="495" height="495" rx="88" fill="white"/>
</clipPath>
</defs>
</svg>
